<?xml version="1.0" encoding="utf-8"?>
<!-- Generator: Adobe Illustrator 19.1.0, SVG Export Plug-In . SVG Version: 6.00 Build 0)  -->
<svg version="1.2" baseProfile="tiny" id="Layer_1" xmlns="http://www.w3.org/2000/svg" xmlns:xlink="http://www.w3.org/1999/xlink"
	 x="0px" y="0px" viewBox="0 0 182 30" xml:space="preserve">
<g>
	<g>
		<g id="jeudis.com_3_">
			<g>
				<path fill="#FFFFFF" d="M78.2,2.1h-1.8v2.4h1.8V2.1z M76.6,7.7h-2v1.7h1.2c0.4,0,0.6,0.2,0.6,0.6v12.3c0,3.2-2.1,3.6-3.2,3.6
					c-0.4,0-0.6,0-0.6,0v1.7c0,0,0.3,0.1,0.8,0.1c1.6,0,4.9-0.6,4.9-5.3v-13C78.3,8.2,77.8,7.7,76.6,7.7z M88.8,7.4
					c-3.8,0-7,2.8-7,7.4c0,4.4,3.2,7.4,7.4,7.4c3.2,0,5.3-2,5.3-2l-0.9-1.4c0,0-1.7,1.7-4.3,1.7c-2.9,0-5.4-2.1-5.5-5.6h10.9
					c0,0,0.1-0.6,0.1-1C94.7,10.4,92.7,7.4,88.8,7.4z M83.9,13.3c0.5-2.8,2.5-4.4,4.9-4.4c2.1,0,3.9,1.4,4,4.4H83.9z M110.7,19.6
					V7.7h-1.9v6.8c0,3.1-2,5.9-5.2,5.9c-2.7,0-3.1-2-3.1-4.2V9.4c0-1.2-0.5-1.7-1.7-1.7h-2v1.7h1.2c0.4,0,0.6,0.2,0.6,0.6v6.7
					c0,3.7,1.4,5.5,4.8,5.5c3.1,0,5-2.2,5.5-3.6h0.1c0,0-0.1,0.4-0.1,1v0.7c0,1.1,0.5,1.6,1.7,1.6h2v-1.7h-1.2
					C110.9,20.2,110.7,20,110.7,19.6z M127.2,19.6V3.8c0-1.2-0.5-1.7-1.7-1.7h-2v1.7h1.2c0.4,0,0.6,0.2,0.6,0.6V9
					c0,0.6,0.1,1.1,0.1,1.1h-0.1c0,0-1.2-2.6-4.6-2.6c-3.7,0-6.4,2.9-6.4,7.4c0,4.4,2.4,7.4,6.2,7.4c3.7,0,4.9-2.8,4.9-2.8h0.1
					c0,0-0.1,0.4-0.1,0.9c0,1,0.5,1.6,1.7,1.6h2v-1.7h-1.2C127.4,20.2,127.2,20,127.2,19.6z M120.8,20.5c-2.6,0-4.5-2.2-4.5-5.7
					c0-3.6,2-5.7,4.6-5.7c3.1,0,4.5,2.8,4.5,5.7C125.4,18.8,123.1,20.5,120.8,20.5z M134.2,19.6V9.4c0-1.2-0.5-1.7-1.7-1.7h-2v1.7
					h1.2c0.4,0,0.6,0.2,0.6,0.6v10.2c0,1.2,0.5,1.7,1.7,1.7h2v-1.7h-1.2C134.4,20.2,134.2,20,134.2,19.6z M134.1,2.1h-1.9v2.4h1.9
					V2.1z M140.1,11.1c0-1.4,1.2-2,3.1-2c0.9,0,2.5,0.4,2.5,1.4v0.7h1.8V9.9c0-2-2.9-2.6-4.3-2.6c-2.8,0-5,1.3-5,3.8
					c0,4.6,7.9,4,7.9,7.1c0,1.5-1.4,2.3-3,2.3c-2.8,0-4.4-2.1-4.4-2.1l-1.1,1.3c0,0,1.7,2.5,5.4,2.5c2.8,0,5-1.6,5-4
					C148,13.6,140.1,14.3,140.1,11.1z M150.1,21.9h1v-1.1h-1V21.9z M156.1,21.2c-1.4,0-2.7-1-2.7-2.7c0-1.7,1.2-2.8,2.7-2.8
					c0.6,0,1.6,0.3,1.6,0.9v0.4h0.9v-0.6c0-1.1-1.7-1.4-2.4-1.4c-2,0-3.6,1.5-3.6,3.6c0,2.1,1.5,3.6,3.6,3.6c1.8,0,2.7-1.1,2.7-1.1
					l-0.4-0.7C158.3,20.2,157.5,21.2,156.1,21.2z M163.3,14.9c-2,0-3.6,1.5-3.6,3.6c0,2.1,1.6,3.6,3.6,3.6c2,0,3.6-1.5,3.6-3.6
					C166.9,16.4,165.3,14.9,163.3,14.9z M163.3,21.2c-1.5,0-2.7-1.2-2.7-2.8c0-1.5,1.2-2.7,2.7-2.7c1.4,0,2.7,1.2,2.7,2.7
					C166,20,164.8,21.2,163.3,21.2z M179.3,21.1c-0.2,0-0.3-0.1-0.3-0.3v-3.2c0-1.7-0.6-2.7-2.3-2.7c-1.2,0-2.1,0.8-2.5,1.7h0
					c-0.2-1.1-0.9-1.7-2.1-1.7c-1.1,0-2.1,0.8-2.5,1.7h0c0,0,0-0.2,0-0.5v-0.3c0-0.5-0.3-0.8-0.8-0.8h-0.9v0.8h0.6
					c0.2,0,0.3,0.1,0.3,0.3v5.7h0.9v-3.2c0-0.3,0-0.6,0.1-0.9c0.3-1,1.1-2,2.2-2c1.3,0,1.4,1,1.4,2v4.1h0.9v-3.2c0-0.4,0-0.7,0.1-1
					c0.3-1,1.1-1.9,2.2-1.9c1.3,0,1.5,0.9,1.5,2v3.3c0,0.6,0.3,0.8,0.8,0.8h1v-0.8H179.3z"/>
			</g>
		</g>
		<g id="les_3_">
			<g>
				<path fill="#74A4C8" d="M42.7,19.6V3.8c0-1.2-0.5-1.7-1.7-1.7h-2v1.7h1.2c0.4,0,0.6,0.2,0.6,0.6v15.8c0,1.2,0.5,1.7,1.7,1.7h2
					v-1.7h-1.2C42.9,20.2,42.7,20,42.7,19.6z M53.4,7.4c-3.8,0-7,2.8-7,7.4c0,4.4,3.2,7.4,7.4,7.4c3.2,0,5.3-2,5.3-2l-0.9-1.4
					c0,0-1.7,1.7-4.3,1.7c-2.9,0-5.4-2.1-5.5-5.6h10.9c0,0,0.1-0.6,0.1-1C59.3,10.4,57.3,7.4,53.4,7.4z M48.5,13.3
					C48.9,10.5,51,9,53.3,9c2.1,0,3.9,1.4,4,4.4H48.5z M64,11.1c0-1.4,1.2-2,3.1-2c0.9,0,2.5,0.4,2.5,1.4v0.7h1.8V9.9
					c0-2-2.9-2.6-4.3-2.6c-2.8,0-5,1.3-5,3.8c0,4.6,7.9,4,7.9,7.1c0,1.5-1.4,2.3-3,2.3c-2.8,0-4.4-2.1-4.4-2.1l-1.1,1.3
					c0,0,1.7,2.5,5.4,2.5c2.8,0,5-1.6,5-4C71.9,13.6,64,14.3,64,11.1z"/>
			</g>
		</g>
		<g id="LOGO_7_">
			<g>
				<path fill="#F7951D" d="M17.4,8c1.9,0,3.5-1.6,3.5-3.5S19.3,1,17.4,1c-1.9,0-3.5,1.6-3.5,3.5C13.9,6.4,15.4,8,17.4,8z M2.7,28.2
					c0,0,11.9-12.7,25.5-6.5l0.7-6.1C28.9,15.7,10.2,14.8,2.7,28.2z"/>
			</g>
		</g>
		<g id="LOGO_6_">
			<g>
				<path fill="#F26B21" d="M9.2,10.8l-1.4,2.7c15.7,5.5,19-5.8,19-5.8C22.4,12.4,9.2,10.8,9.2,10.8z"/>
			</g>
		</g>
	</g>
</g>
</svg>
